<svg width="287" height="573" viewBox="0 0 287 573" fill="none" xmlns="http://www.w3.org/2000/svg">
<path d="M245.171 6.69824H41.3869C22.1163 6.69824 6.49438 22.318 6.49438 41.586V531.811C6.49438 551.079 22.1163 566.698 41.3869 566.698H245.171C264.441 566.698 280.063 551.079 280.063 531.811V41.586C280.063 22.318 264.441 6.69824 245.171 6.69824Z" fill="black" stroke="url(#paint0_linear_1_109)" stroke-width="2.79173" stroke-miterlimit="10"/>
<g filter="url(#filter0_f_1_109)">
<path d="M245.171 6.69824H41.3869C22.1163 6.69824 6.49438 22.318 6.49438 41.586V531.811C6.49438 551.079 22.1163 566.698 41.3869 566.698H245.171C264.441 566.698 280.063 551.079 280.063 531.811V41.586C280.063 22.318 264.441 6.69824 245.171 6.69824Z" fill="black"/>
<path d="M245.171 6.69824H41.3869C22.1163 6.69824 6.49438 22.318 6.49438 41.586V531.811C6.49438 551.079 22.1163 566.698 41.3869 566.698H245.171C264.441 566.698 280.063 551.079 280.063 531.811V41.586C280.063 22.318 264.441 6.69824 245.171 6.69824Z" stroke="url(#paint1_linear_1_109)" stroke-width="1.11669" stroke-miterlimit="10"/>
</g>
<g opacity="0.4" filter="url(#filter1_f_1_109)">
<ellipse cx="6.20543" cy="345.884" rx="1.39586" ry="8.65435" fill="#DAF760"/>
</g>
<g opacity="0.5" filter="url(#filter2_f_1_109)">
<ellipse cx="279.795" cy="124.221" rx="1.39586" ry="12.0044" transform="rotate(180 279.795 124.221)" fill="white"/>
</g>
<g style="mix-blend-mode:multiply" opacity="0.5">
<path d="M101.989 294.829L88.897 302.387L101.989 309.946L115.079 302.387L101.989 294.829Z" fill="#A591AA"/>
</g>
<g style="mix-blend-mode:multiply" opacity="0.5">
<path d="M163.293 259.804L150.201 267.361L163.293 274.919L176.383 267.362L163.293 259.804Z" fill="#A591AA"/>
</g>
<g style="mix-blend-mode:multiply" opacity="0.5">
<path d="M183.65 248.378L170.558 255.937L183.65 263.495L196.741 255.937L183.65 248.378Z" fill="#A591AA"/>
</g>
<g style="mix-blend-mode:multiply" opacity="0.5">
<path d="M144.099 271.722L131.007 279.28L144.099 286.839L157.189 279.28L144.099 271.722Z" fill="#A591AA"/>
</g>
<g style="mix-blend-mode:multiply" opacity="0.5">
<path d="M123.12 283.072L110.03 290.63L123.12 298.189L136.212 290.63L123.12 283.072Z" fill="#A591AA"/>
</g>
<path d="M183.65 256.263C183.308 256.263 183.03 255.985 183.03 255.643V233.074C183.03 232.731 183.308 232.454 183.65 232.454C183.993 232.454 184.27 232.731 184.27 233.074V255.643C184.27 255.985 183.993 256.263 183.65 256.263Z" fill="#AAA617"/>
<path d="M183.65 225.386L170.333 233.073L183.65 240.762L196.967 233.073L183.65 225.386Z" fill="#AF982B"/>
<path d="M183.65 139.451L170.333 147.139L183.65 154.826L196.967 147.139L183.65 139.451Z" fill="#58F28A"/>
<path d="M170.333 147.138V233.074L183.65 240.763V154.826L170.333 147.138Z" fill="#058A36"/>
<path d="M183.651 154.826V240.763L196.968 233.074V147.138L183.651 154.826Z" fill="url(#paint2_linear_1_109)"/>
<path d="M183.65 147.758C183.308 147.758 183.03 147.481 183.03 147.138V124.569C183.03 124.227 183.308 123.949 183.65 123.949C183.993 123.949 184.27 124.227 184.27 124.569V147.138C184.27 147.481 183.993 147.758 183.65 147.758Z" fill="#AAA617"/>
<path d="M163.293 268.131C162.95 268.131 162.673 267.853 162.673 267.511V244.942C162.673 244.599 162.95 244.322 163.293 244.322C163.635 244.322 163.913 244.599 163.913 244.942V267.511C163.913 267.853 163.635 268.131 163.293 268.131Z" fill="#AAA617"/>
<path d="M163.292 237.254L149.975 244.942L163.292 252.631L176.607 244.942L163.292 237.254Z" fill="#AF982B"/>
<path d="M163.292 186.039L149.975 193.728L163.292 201.416L176.607 193.728L163.292 186.039Z" fill="#58F28A"/>
<path d="M149.975 193.729V244.942L163.292 252.631V201.416L149.975 193.729Z" fill="#058A36"/>
<path d="M163.292 201.416V252.631L176.607 244.942V193.729L163.292 201.416Z" fill="url(#paint3_linear_1_109)"/>
<path d="M163.293 194.348C162.95 194.348 162.673 194.071 162.673 193.728V171.159C162.673 170.816 162.95 170.539 163.293 170.539C163.635 170.539 163.913 170.816 163.913 171.159V193.728C163.913 194.071 163.635 194.348 163.293 194.348Z" fill="#AAA617"/>
<path d="M144.099 279.986C143.757 279.986 143.479 279.708 143.479 279.366V256.797C143.479 256.454 143.757 256.177 144.099 256.177C144.442 256.177 144.719 256.454 144.719 256.797V279.366C144.719 279.708 144.442 279.986 144.099 279.986Z" fill="#AAA617"/>
<path d="M144.099 249.109L130.782 256.797L144.099 264.486L157.414 256.799L144.099 249.109Z" fill="#AF982B"/>
<path d="M144.099 217.736L130.782 225.424L144.099 233.113L157.414 225.424L144.099 217.736Z" fill="#58F28A"/>
<path d="M130.782 225.424V256.797L144.099 264.486V233.113L130.782 225.424Z" fill="#058A36"/>
<path d="M144.098 233.113V264.486L157.413 256.799V225.424L144.098 233.113Z" fill="url(#paint4_linear_1_109)"/>
<path d="M144.099 226.044C143.757 226.044 143.479 225.767 143.479 225.424V202.855C143.479 202.512 143.757 202.235 144.099 202.235C144.442 202.235 144.719 202.512 144.719 202.855V225.424C144.719 225.767 144.442 226.044 144.099 226.044Z" fill="#AAA617"/>
<path d="M123.119 291.171C122.777 291.171 122.499 290.894 122.499 290.551V267.982C122.499 267.639 122.777 267.362 123.119 267.362C123.462 267.362 123.739 267.639 123.739 267.982V290.551C123.739 290.894 123.462 291.171 123.119 291.171Z" fill="#AAA617"/>
<path d="M123.12 260.294L109.805 267.982L123.12 275.671L136.437 267.984L123.12 260.294Z" fill="#AF982B"/>
<path d="M123.12 181.8L109.805 189.487L123.12 197.176L136.437 189.487L123.12 181.8Z" fill="#58F28A"/>
<path d="M109.805 189.487V267.982L123.12 275.671V197.176L109.805 189.487Z" fill="#058A36"/>
<path d="M123.12 197.176V275.671L136.437 267.984V189.487L123.12 197.176Z" fill="url(#paint5_linear_1_109)"/>
<path d="M123.119 190.107C122.776 190.107 122.499 189.83 122.499 189.487V166.918C122.499 166.575 122.776 166.298 123.119 166.298C123.462 166.298 123.739 166.575 123.739 166.918V189.487C123.739 189.83 123.462 190.107 123.119 190.107Z" fill="#AAA617"/>
<path d="M101.99 302.986C101.647 302.986 101.37 302.708 101.37 302.366V279.797C101.37 279.454 101.647 279.177 101.99 279.177C102.332 279.177 102.61 279.454 102.61 279.797V302.366C102.61 302.708 102.332 302.986 101.99 302.986Z" fill="#AAA617"/>
<path d="M101.989 272.11L88.6723 279.797L101.989 287.486L115.304 279.797L101.989 272.11Z" fill="#AF982B"/>
<path d="M101.989 223.375L88.6723 231.064L101.989 238.752L115.304 231.064L101.989 223.375Z" fill="#58F28A"/>
<path d="M88.6723 231.064V279.797L101.989 287.486V238.751L88.6723 231.064Z" fill="#058A36"/>
<path d="M101.989 238.751V287.486L115.304 279.797V231.064L101.989 238.751Z" fill="url(#paint6_linear_1_109)"/>
<path d="M101.99 231.684C101.647 231.684 101.37 231.407 101.37 231.064V208.495C101.37 208.152 101.647 207.875 101.99 207.875C102.332 207.875 102.61 208.152 102.61 208.495V231.064C102.61 231.407 102.332 231.684 101.99 231.684Z" fill="#AAA617"/>
<path d="M147.55 191.114C147.55 191.114 146.879 192.952 146.839 193.407C146.798 193.862 146.416 194.685 147.594 195.304C147.594 195.304 148.97 195.963 149.357 196.045C149.357 196.045 147.892 195.532 147.48 195.492C147.067 195.451 146.258 195.265 145.546 196.905L144.844 198.714C144.844 198.714 145.498 196.788 145.563 196.39C145.628 195.993 145.95 195.062 144.7 194.465L143.135 193.812C143.135 193.812 144.405 194.305 145.195 194.368C145.985 194.43 146.65 193.588 147.55 191.114Z" fill="white" stroke="white" stroke-width="0.059467" stroke-miterlimit="10"/>
<circle cx="164.11" cy="166.391" r="0.908273" transform="rotate(5.63183 164.11 166.391)" fill="#33B568"/>
<circle cx="107.651" cy="217.737" r="0.908273" transform="rotate(5.63183 107.651 217.737)" fill="#33B568"/>
<circle cx="87.902" cy="285.847" r="0.908273" transform="rotate(5.63183 87.902 285.847)" fill="#33B568"/>
<circle cx="77.348" cy="249.925" r="0.908273" transform="rotate(5.63183 77.348 249.925)" fill="white"/>
<circle cx="164.571" cy="243.367" r="0.908273" transform="rotate(5.63183 164.571 243.367)" fill="white"/>
<circle cx="198.945" cy="237.237" r="0.504724" transform="rotate(5.63183 198.945 237.237)" fill="white"/>
<circle cx="193.188" cy="134.251" r="1.46774" transform="rotate(5.63183 193.188 134.251)" fill="#33B568"/>
<path d="M193.64 181.963C193.64 181.963 195.481 185.837 196.13 186.6C196.779 187.363 197.476 189.225 200.256 188.337C200.256 188.337 203.4 187.201 204.124 186.723C204.124 186.723 201.069 188.221 200.372 188.804C199.674 189.386 198.14 190.364 199.607 193.998L201.354 197.877C201.354 197.877 199.35 193.895 198.829 193.181C198.308 192.467 197.347 190.534 194.494 191.569L191.066 193.009C191.066 193.009 193.79 191.785 195.102 190.646C196.414 189.508 196.122 187.172 193.64 181.963Z" fill="white" stroke="white" stroke-width="0.059467" stroke-miterlimit="10"/>
<path d="M88.372 355.348C81.7723 355.348 77.2832 350.424 77.2832 343.422C77.2832 336.387 81.7723 331.261 88.372 331.261C94.9716 331.261 99.3937 336.387 99.3937 343.422C99.3937 350.424 94.9716 355.348 88.372 355.348ZM88.372 353.405C93.8326 353.405 97.2496 349.318 97.2496 343.389C97.2496 337.459 93.8326 333.204 88.372 333.204C82.8778 333.204 79.4273 337.459 79.4273 343.389C79.4273 349.318 82.9113 353.405 88.372 353.405ZM110.412 337.962C114.533 337.962 117.012 340.709 117.012 344.997V355.047H115.069V345.365C115.069 341.58 113.025 339.804 110.111 339.804C106.593 339.804 104.751 342.35 104.751 345.868V355.047H102.841V338.297H104.416L104.717 341.111C105.722 339.034 107.833 337.962 110.412 337.962ZM136.691 346.169V347.241H122.654C122.755 351.496 125.468 353.64 128.819 353.64C131.365 353.64 133.509 352.367 134.48 349.888H136.457C135.418 353.171 132.671 355.315 128.819 355.315C123.894 355.315 120.644 351.864 120.644 346.638C120.644 341.412 123.894 337.962 128.752 337.962C133.509 337.962 136.691 341.278 136.691 346.169ZM128.752 339.603C125.569 339.603 123.056 341.613 122.688 345.6H134.681C134.447 341.613 131.968 339.603 128.752 339.603ZM162.559 355.047L160.18 348.849H148.589L146.211 355.047H144.1L153.246 331.596H155.591L164.703 355.047H162.559ZM149.36 346.906H159.41L154.385 333.874L149.36 346.906ZM175.543 337.962C179.764 337.962 183.583 341.044 183.583 346.705C183.583 352.333 179.798 355.382 175.543 355.382C172.963 355.382 170.417 354.31 169.111 352.132V361.747H167.201V338.297H168.809L169.111 341.312C170.451 339.101 172.963 337.962 175.543 337.962ZM175.376 353.707C178.994 353.707 181.573 351.094 181.573 346.705C181.573 342.35 179.061 339.67 175.376 339.637C171.925 339.603 169.178 342.384 169.178 346.772C169.178 351.161 171.925 353.707 175.376 353.707ZM195.583 337.962C199.805 337.962 203.624 341.044 203.624 346.705C203.624 352.333 199.838 355.382 195.583 355.382C193.004 355.382 190.458 354.31 189.151 352.132V361.747H187.242V338.297H188.85L189.151 341.312C190.491 339.101 193.004 337.962 195.583 337.962ZM195.416 353.707C199.034 353.707 201.614 351.094 201.614 346.705C201.614 342.35 199.101 339.67 195.416 339.637C191.965 339.603 189.218 342.384 189.218 346.772C189.218 351.161 191.965 353.707 195.416 353.707ZM206.058 355.047V351.898H209.208V355.047H206.058ZM87.3836 393.07H101.152V395.047H85.34V371.596H100.449V373.573H87.3836V382.25H97.8358V384.193H87.3836V393.07ZM111.835 377.962C115.956 377.962 118.435 380.709 118.435 384.997V395.047H116.492V385.365C116.492 381.58 114.448 379.804 111.534 379.804C108.016 379.804 106.174 382.35 106.174 385.868V395.047H104.264V378.297H105.839L106.14 381.111C107.145 379.034 109.256 377.962 111.835 377.962ZM136.372 370.591H138.315V395.047H136.707L136.372 391.998C135.066 394.176 132.52 395.382 129.94 395.382C125.686 395.382 121.9 392.4 121.9 386.772C121.9 381.111 125.719 377.962 129.94 377.962C132.654 377.962 135.066 379.168 136.372 381.278V370.591ZM130.108 393.707C133.558 393.707 136.305 391.161 136.305 386.772C136.305 382.417 133.558 379.637 130.108 379.67C126.423 379.704 123.91 382.451 123.91 386.772C123.91 391.161 126.49 393.707 130.108 393.707ZM144.586 370.591V395.047H142.677V370.591H144.586ZM164.455 386.169V387.241H150.418C150.518 391.496 153.232 393.64 156.582 393.64C159.128 393.64 161.272 392.367 162.244 389.888H164.22C163.182 393.171 160.435 395.315 156.582 395.315C151.657 395.315 148.408 391.864 148.408 386.638C148.408 381.412 151.657 377.962 156.515 377.962C161.272 377.962 164.455 381.278 164.455 386.169ZM156.515 379.603C153.332 379.603 150.82 381.613 150.451 385.6H162.445C162.21 381.613 159.731 379.603 156.515 379.603ZM167.095 390.256H169.105C169.206 392.467 171.048 393.74 173.963 393.74C176.877 393.74 178.753 392.568 178.753 390.524C178.753 388.816 177.882 387.945 175.872 387.677L172.288 387.141C169.139 386.672 167.531 385.298 167.531 382.652C167.531 379.804 170.177 377.962 173.762 377.962C177.547 377.962 180.294 379.737 180.361 383.087H178.418C178.351 380.809 176.442 379.603 173.795 379.603C171.216 379.603 169.407 380.709 169.407 382.652C169.407 384.26 170.378 385.097 172.656 385.399L176.207 385.935C179.189 386.37 180.697 387.71 180.697 390.357C180.697 393.539 177.815 395.382 174.03 395.382C169.641 395.382 167.196 393.372 167.095 390.256ZM182.915 390.256H184.925C185.026 392.467 186.868 393.74 189.783 393.74C192.698 393.74 194.574 392.568 194.574 390.524C194.574 388.816 193.703 387.945 191.693 387.677L188.108 387.141C184.959 386.672 183.351 385.298 183.351 382.652C183.351 379.804 185.997 377.962 189.582 377.962C193.368 377.962 196.115 379.737 196.182 383.087H194.239C194.172 380.809 192.262 379.603 189.616 379.603C187.036 379.603 185.227 380.709 185.227 382.652C185.227 384.26 186.198 385.097 188.476 385.399L192.028 385.935C195.009 386.37 196.517 387.71 196.517 390.357C196.517 393.539 193.636 395.382 189.85 395.382C185.461 395.382 183.016 393.372 182.915 390.256ZM61.6239 435.047V411.596H70.5351C75.8282 411.596 78.6423 414.946 78.6423 418.967C78.6423 422.987 75.8282 426.303 70.5351 426.303H63.6675V435.047H61.6239ZM63.6675 424.36H70.9371C74.5552 424.36 76.4982 422.183 76.4982 419.034C76.4982 415.884 74.5217 413.539 70.9371 413.539H63.6675V424.36ZM80.5644 426.705C80.5644 421.546 83.8809 417.962 88.9395 417.962C93.9981 417.962 97.3147 421.546 97.3147 426.705C97.3147 431.797 93.9981 435.382 88.9395 435.382C83.8809 435.382 80.5644 431.797 80.5644 426.705ZM82.5744 426.672C82.5744 430.926 85.1205 433.673 88.9395 433.673C92.7586 433.673 95.3047 430.926 95.3047 426.672C95.3047 422.384 92.7586 419.637 88.9395 419.637C85.1205 419.637 82.5744 422.384 82.5744 426.672ZM99.9427 430.256H101.953C102.053 432.467 103.896 433.74 106.81 433.74C109.725 433.74 111.601 432.568 111.601 430.524C111.601 428.816 110.73 427.945 108.72 427.677L105.135 427.141C101.986 426.672 100.378 425.298 100.378 422.652C100.378 419.804 103.025 417.962 106.609 417.962C110.395 417.962 113.142 419.737 113.209 423.087H111.266C111.199 420.809 109.289 419.603 106.643 419.603C104.063 419.603 102.254 420.709 102.254 422.652C102.254 424.26 103.226 425.097 105.504 425.399L109.055 425.935C112.036 426.37 113.544 427.71 113.544 430.357C113.544 433.539 110.663 435.382 106.877 435.382C102.489 435.382 100.043 433.372 99.9427 430.256ZM115.763 430.256H117.773C117.873 432.467 119.716 433.74 122.63 433.74C125.545 433.74 127.421 432.568 127.421 430.524C127.421 428.816 126.55 427.945 124.54 427.677L120.955 427.141C117.806 426.672 116.198 425.298 116.198 422.652C116.198 419.804 118.845 417.962 122.429 417.962C126.215 417.962 128.962 419.737 129.029 423.087H127.086C127.019 420.809 125.11 419.603 122.463 419.603C119.883 419.603 118.074 420.709 118.074 422.652C118.074 424.26 119.046 425.097 121.324 425.399L124.875 425.935C127.857 426.37 129.364 427.71 129.364 430.357C129.364 433.539 126.483 435.382 122.697 435.382C118.309 435.382 115.863 433.372 115.763 430.256ZM132.48 414.209V411.596H135.327V414.209H132.48ZM132.949 435.047V418.297H134.858V435.047H132.949ZM147.558 417.962C151.779 417.962 155.598 421.044 155.598 426.705C155.598 432.333 151.812 435.382 147.558 435.382C145.012 435.382 142.465 434.343 141.125 432.199L140.824 435.047H139.216V410.591H141.159V421.379C142.465 419.134 144.911 417.962 147.558 417.962ZM147.39 433.707C151.008 433.707 153.588 431.094 153.588 426.705C153.588 422.35 151.075 419.67 147.39 419.637C143.939 419.603 141.192 422.384 141.192 426.772C141.192 431.161 143.939 433.707 147.39 433.707ZM158.787 414.209V411.596H161.635V414.209H158.787ZM159.256 435.047V418.297H161.166V435.047H159.256ZM167.433 410.591V435.047H165.524V410.591H167.433ZM171.322 414.209V411.596H174.169V414.209H171.322ZM171.791 435.047V418.297H173.7V435.047H171.791ZM182.782 435.047C180.671 435.047 179.03 433.941 179.03 431.194V420.039H175.847V418.297H177.589C178.661 418.297 179.03 417.861 179.03 416.889V414.008H180.939V418.297H184.926V420.039H180.939V431.094C180.939 432.199 181.341 433.271 183.05 433.271H184.892V435.047H182.782ZM187.651 414.209V411.596H190.499V414.209H187.651ZM188.12 435.047V418.297H190.03V435.047H188.12ZM209.898 426.169V427.241H195.862C195.962 431.496 198.676 433.64 202.026 433.64C204.572 433.64 206.716 432.367 207.687 429.888H209.664C208.625 433.171 205.878 435.315 202.026 435.315C197.101 435.315 193.851 431.864 193.851 426.638C193.851 421.412 197.101 417.962 201.959 417.962C206.716 417.962 209.898 421.278 209.898 426.169ZM201.959 419.603C198.776 419.603 196.264 421.613 195.895 425.6H207.888C207.654 421.613 205.175 419.603 201.959 419.603ZM212.539 430.256H214.549C214.649 432.467 216.492 433.74 219.406 433.74C222.321 433.74 224.197 432.568 224.197 430.524C224.197 428.816 223.326 427.945 221.316 427.677L217.731 427.141C214.582 426.672 212.974 425.298 212.974 422.652C212.974 419.804 215.621 417.962 219.205 417.962C222.991 417.962 225.738 419.737 225.805 423.087H223.862C223.795 420.809 221.886 419.603 219.239 419.603C216.659 419.603 214.85 420.709 214.85 422.652C214.85 424.26 215.822 425.097 218.1 425.399L221.651 425.935C224.633 426.37 226.14 427.71 226.14 430.357C226.14 433.539 223.259 435.382 219.473 435.382C215.085 435.382 212.639 433.372 212.539 430.256Z" fill="white"/>
<defs>
<filter id="filter0_f_1_109" x="0.352584" y="0.556685" width="285.852" height="572.284" filterUnits="userSpaceOnUse" color-interpolation-filters="sRGB">
<feFlood flood-opacity="0" result="BackgroundImageFix"/>
<feBlend mode="normal" in="SourceGraphic" in2="BackgroundImageFix" result="shape"/>
<feGaussianBlur stdDeviation="2.79173" result="effect1_foregroundBlur_1_109"/>
</filter>
<filter id="filter1_f_1_109" x="0.342809" y="332.763" width="11.7252" height="26.2421" filterUnits="userSpaceOnUse" color-interpolation-filters="sRGB">
<feFlood flood-opacity="0" result="BackgroundImageFix"/>
<feBlend mode="normal" in="SourceGraphic" in2="BackgroundImageFix" result="shape"/>
<feGaussianBlur stdDeviation="2.23338" result="effect1_foregroundBlur_1_109"/>
</filter>
<filter id="filter2_f_1_109" x="273.932" y="107.75" width="11.7253" height="32.9423" filterUnits="userSpaceOnUse" color-interpolation-filters="sRGB">
<feFlood flood-opacity="0" result="BackgroundImageFix"/>
<feBlend mode="normal" in="SourceGraphic" in2="BackgroundImageFix" result="shape"/>
<feGaussianBlur stdDeviation="2.23338" result="effect1_foregroundBlur_1_109"/>
</filter>
<linearGradient id="paint0_linear_1_109" x1="222.091" y1="-16.2346" x2="523.251" y2="430.953" gradientUnits="userSpaceOnUse">
<stop stop-color="#1D7B6E"/>
<stop offset="1" stop-color="#E2FF6F" stop-opacity="0"/>
</linearGradient>
<linearGradient id="paint1_linear_1_109" x1="222.091" y1="-16.2346" x2="523.251" y2="430.953" gradientUnits="userSpaceOnUse">
<stop stop-color="#28B6A2"/>
<stop offset="1" stop-color="#E2FF6F" stop-opacity="0"/>
</linearGradient>
<linearGradient id="paint2_linear_1_109" x1="190.367" y1="149.685" x2="149.512" y2="216.461" gradientUnits="userSpaceOnUse">
<stop offset="0.4267" stop-color="#D4F938"/>
<stop offset="1" stop-color="#32D875" stop-opacity="0.96"/>
</linearGradient>
<linearGradient id="paint3_linear_1_109" x1="170.006" y1="195.331" x2="150.648" y2="245.616" gradientUnits="userSpaceOnUse">
<stop offset="0.4267" stop-color="#D4F938"/>
<stop offset="1" stop-color="#32D875" stop-opacity="0.96"/>
</linearGradient>
<linearGradient id="paint4_linear_1_109" x1="150.813" y1="226.487" x2="141.636" y2="262.433" gradientUnits="userSpaceOnUse">
<stop offset="0.4267" stop-color="#D4F938"/>
<stop offset="1" stop-color="#32D875" stop-opacity="0.96"/>
</linearGradient>
<linearGradient id="paint5_linear_1_109" x1="129.835" y1="191.832" x2="93.7148" y2="255.967" gradientUnits="userSpaceOnUse">
<stop offset="0.4267" stop-color="#D4F938"/>
<stop offset="1" stop-color="#32D875" stop-opacity="0.96"/>
</linearGradient>
<linearGradient id="paint6_linear_1_109" x1="108.703" y1="232.599" x2="90.7499" y2="281.284" gradientUnits="userSpaceOnUse">
<stop offset="0.4267" stop-color="#D4F938"/>
<stop offset="1" stop-color="#32D875" stop-opacity="0.96"/>
</linearGradient>
</defs>
</svg>
