<svg width="287" height="573" viewBox="0 0 287 573" fill="none" xmlns="http://www.w3.org/2000/svg">
<path d="M245.171 6.69824H41.3869C22.1163 6.69824 6.49438 22.318 6.49438 41.586V531.811C6.49438 551.079 22.1163 566.698 41.3869 566.698H245.171C264.441 566.698 280.063 551.079 280.063 531.811V41.586C280.063 22.318 264.441 6.69824 245.171 6.69824Z" fill="black" stroke="url(#paint0_linear_1_170)" stroke-width="2.79173" stroke-miterlimit="10"/>
<g filter="url(#filter0_f_1_170)">
<path d="M245.171 6.69824H41.3869C22.1163 6.69824 6.49438 22.318 6.49438 41.586V531.811C6.49438 551.079 22.1163 566.698 41.3869 566.698H245.171C264.441 566.698 280.063 551.079 280.063 531.811V41.586C280.063 22.318 264.441 6.69824 245.171 6.69824Z" fill="black"/>
<path d="M245.171 6.69824H41.3869C22.1163 6.69824 6.49438 22.318 6.49438 41.586V531.811C6.49438 551.079 22.1163 566.698 41.3869 566.698H245.171C264.441 566.698 280.063 551.079 280.063 531.811V41.586C280.063 22.318 264.441 6.69824 245.171 6.69824Z" stroke="url(#paint1_linear_1_170)" stroke-width="1.11669" stroke-miterlimit="10"/>
</g>
<g opacity="0.4" filter="url(#filter1_f_1_170)">
<ellipse cx="6.20543" cy="345.882" rx="1.39586" ry="8.65435" fill="#DAF760"/>
</g>
<g opacity="0.5" filter="url(#filter2_f_1_170)">
<ellipse cx="279.795" cy="124.219" rx="1.39586" ry="12.0044" transform="rotate(180 279.795 124.219)" fill="white"/>
</g>
<path d="M156.045 186.044L158.125 184.835C167.933 190.497 167.984 199.666 158.241 205.328C148.507 210.984 132.668 210.991 122.861 205.328C113.064 199.672 113.012 190.491 122.746 184.834C132.489 179.172 148.329 179.178 158.126 184.834L156.046 186.043C147.409 181.055 133.43 181.049 124.84 186.043C116.257 191.03 116.302 199.133 124.942 204.119C133.589 209.113 147.567 209.107 156.149 204.119C164.742 199.126 164.696 191.037 156.047 186.044H156.045Z" fill="#58F28A"/>
<path d="M155.15 181.308C157.764 182.914 160.384 184.995 161.639 187.806C169.555 205.546 140.474 213.089 124.941 204.119C121.522 202.146 119.449 199.685 118.724 197.121C117.776 193.681 118.085 190.04 119.551 187.38C119.928 186.696 120.81 185.096 122.837 183.376C124.377 182.069 126.145 180.978 128.091 180.134C132.189 178.354 136.997 177.529 141.994 177.745C148.98 178.048 153.522 180.337 155.151 181.307C154.224 180.772 153.453 181.372 153.406 181.41C146.25 177.275 134.651 177.271 127.533 181.41C120.419 185.54 120.456 192.267 127.617 196.397C134.782 200.537 146.381 200.532 153.49 196.397C160.614 192.259 160.577 185.548 153.406 181.411C153.453 181.374 154.224 180.773 155.151 181.308H155.15Z" fill="#28A45A"/>
<path d="M165.515 195.153C164.687 199.979 168.278 206.694 158.168 212.569C142.616 221.607 115.37 215.213 115.406 202.252L115.48 195.011C115.469 198.744 117.931 202.482 122.861 205.329C138.328 214.259 165.478 208.146 165.515 195.153Z" fill="#28A45A"/>
<path d="M153.413 178.533C160.584 182.671 160.621 189.382 153.497 193.52C146.388 197.655 134.789 197.66 127.624 193.52C120.463 189.389 120.425 182.663 127.54 178.533C134.658 174.393 146.257 174.397 153.413 178.533V178.533Z" fill="#58F28A"/>
<circle cx="140.461" cy="177.105" r="23.6661" fill="url(#paint2_linear_1_170)"/>
<path d="M111.448 167.508C111.448 167.508 110.849 169.149 110.813 169.556C110.777 169.962 110.436 170.697 111.488 171.25C111.488 171.25 112.716 171.838 113.062 171.912C113.062 171.912 111.754 171.453 111.385 171.417C111.017 171.381 110.295 171.215 109.659 172.679L109.032 174.294C109.032 174.294 109.615 172.575 109.674 172.22C109.732 171.864 110.019 171.033 108.903 170.5L107.506 169.917C107.506 169.917 108.639 170.358 109.345 170.413C110.05 170.469 110.645 169.717 111.448 167.508Z" fill="#33B568" stroke="#33B568" stroke-width="0.275772" stroke-miterlimit="10"/>
<circle cx="126.004" cy="147.046" r="0.811116" transform="rotate(5.63183 126.004 147.046)" fill="white"/>
<circle cx="112.702" cy="186.913" r="0.811116" transform="rotate(5.63183 112.702 186.913)" fill="#33B568"/>
<circle cx="115.48" cy="214.305" r="0.811116" transform="rotate(5.63183 115.48 214.305)" fill="white"/>
<circle cx="171.03" cy="203.645" r="0.450735" transform="rotate(5.63183 171.03 203.645)" fill="white"/>
<circle cx="154.742" cy="150.389" r="1.31073" transform="rotate(5.63183 154.742 150.389)" fill="#33B568"/>
<path d="M163.641 156.84C163.641 156.84 162.328 160.439 162.249 161.329C162.17 162.22 161.422 163.831 163.728 165.044C163.728 165.044 166.421 166.333 167.179 166.495C167.179 166.495 164.312 165.489 163.504 165.41C162.696 165.331 161.112 164.967 159.718 168.177L158.344 171.719C158.344 171.719 159.623 167.949 159.751 167.17C159.879 166.391 160.508 164.568 158.062 163.401L154.997 162.121C154.997 162.121 157.483 163.088 159.03 163.21C160.577 163.332 161.88 161.683 163.641 156.84Z" fill="white" stroke="white" stroke-width="0.275772" stroke-miterlimit="10"/>
<path d="M93.2074 264.519H80.1756V273.564H92.0014V275.507H80.1756V285.993H78.1321V262.543H93.2074V264.519ZM107.702 269.243H109.611V285.993H108.037L107.735 283.179C106.73 285.256 104.653 286.328 102.208 286.328C98.2212 286.328 95.7757 283.581 95.7757 279.293V269.243H97.7187V278.925C97.7187 282.71 99.7288 284.486 102.509 284.486C105.893 284.486 107.702 281.94 107.702 278.422V269.243ZM118.68 285.993C116.569 285.993 114.928 284.888 114.928 282.141V270.985H111.745V269.243H113.487C114.559 269.243 114.928 268.807 114.928 267.836V264.955H116.837V269.243H120.824V270.985H116.837V282.04C116.837 283.146 117.239 284.218 118.948 284.218H120.79V285.993H118.68ZM135.744 269.243H137.653V285.993H136.079L135.777 283.179C134.772 285.256 132.695 286.328 130.249 286.328C126.263 286.328 123.817 283.581 123.817 279.293V269.243H125.76V278.925C125.76 282.71 127.77 284.486 130.551 284.486C133.935 284.486 135.744 281.94 135.744 278.422V269.243ZM148.396 269.243H150.44V271.085H148.363C145.415 271.085 143.907 273.129 143.907 276.479V285.993H141.998V269.243H143.572L143.874 271.889C144.611 270.348 146.453 269.243 148.396 269.243ZM168.029 277.115V278.187H153.992C154.092 282.442 156.806 284.586 160.156 284.586C162.702 284.586 164.846 283.313 165.818 280.834H167.794C166.756 284.117 164.009 286.261 160.156 286.261C155.231 286.261 151.982 282.811 151.982 277.584C151.982 272.358 155.231 268.908 160.089 268.908C164.846 268.908 168.029 272.224 168.029 277.115ZM160.089 270.549C156.907 270.549 154.394 272.559 154.025 276.546H166.019C165.784 272.559 163.305 270.549 160.089 270.549ZM176.912 277.651C176.912 272.492 180.228 268.908 185.287 268.908C190.345 268.908 193.662 272.492 193.662 277.651C193.662 282.744 190.345 286.328 185.287 286.328C180.228 286.328 176.912 282.744 176.912 277.651ZM178.922 277.618C178.922 281.873 181.468 284.62 185.287 284.62C189.106 284.62 191.652 281.873 191.652 277.618C191.652 273.33 189.106 270.583 185.287 270.583C181.468 270.583 178.922 273.33 178.922 277.618ZM195.452 269.243H198.467V265.558C198.467 262.576 200.009 261.538 202.588 261.538H204.699V263.313H202.488C200.779 263.313 200.411 264.218 200.411 265.558V269.243H204.699V270.985H200.411V285.993H198.467V270.985H195.452V269.243ZM70.909 325.993V302.543H78.2457C85.8504 302.543 89.9709 307.367 89.9709 314.268C89.9709 321.169 85.8504 325.993 78.2457 325.993H70.909ZM72.9526 324.017H78.6812C84.4098 323.983 87.8269 320.131 87.8269 314.268C87.8269 308.405 84.4098 304.519 78.6812 304.519H72.9526V324.017ZM108.943 317.115V318.187H94.906C95.0065 322.442 97.72 324.586 101.07 324.586C103.616 324.586 105.76 323.313 106.732 320.834H108.708C107.67 324.117 104.923 326.261 101.07 326.261C96.1455 326.261 92.8959 322.811 92.8959 317.584C92.8959 312.358 96.1455 308.908 101.003 308.908C105.76 308.908 108.943 312.224 108.943 317.115ZM101.003 310.549C97.8205 310.549 95.308 312.559 94.9395 316.546H106.933C106.698 312.559 104.219 310.549 101.003 310.549ZM119.02 309.243H121.064V311.085H118.987C116.039 311.085 114.531 313.129 114.531 316.479V325.993H112.622V309.243H114.196L114.498 311.889C115.235 310.348 117.077 309.243 119.02 309.243ZM123.327 305.156V302.543H126.175V305.156H123.327ZM123.796 325.993V309.243H125.706V325.993H123.796ZM130.03 309.243L136.094 323.615L142.191 309.243H144.268L137.065 325.993H135.089L127.886 309.243H130.03ZM160.224 324.419H160.794V325.993H159.487C158.248 325.993 157.042 325.424 156.941 323.548C155.97 325.156 153.625 326.328 150.844 326.328C147.126 326.328 144.814 324.352 144.814 321.236C144.814 318.657 146.322 316.445 151.313 316.445H156.941V315.44C156.941 311.923 154.931 310.583 152.184 310.583C149.337 310.583 147.628 311.889 147.461 314.1H145.484C145.786 310.683 148.566 308.908 152.251 308.908C156.673 308.908 158.884 311.487 158.884 315.373V322.978C158.884 324.117 159.119 324.419 160.224 324.419ZM151.012 324.653C153.96 324.653 156.941 322.945 156.941 318.891V318.053H151.313C147.997 318.053 146.824 319.394 146.824 321.27C146.824 323.514 148.533 324.653 151.012 324.653ZM167.998 325.993C165.887 325.993 164.246 324.888 164.246 322.141V310.985H161.063V309.243H162.805C163.877 309.243 164.246 308.807 164.246 307.836V304.955H166.155V309.243H170.142V310.985H166.155V322.04C166.155 323.146 166.557 324.218 168.266 324.218H170.108V325.993H167.998ZM172.867 305.156V302.543H175.715V305.156H172.867ZM173.336 325.993V309.243H175.246V325.993H173.336ZM179.57 309.243L185.634 323.615L191.731 309.243H193.808L186.605 325.993H184.629L177.426 309.243H179.57ZM210.837 317.115V318.187H196.8C196.9 322.442 199.614 324.586 202.964 324.586C205.51 324.586 207.654 323.313 208.625 320.834H210.602C209.564 324.117 206.816 326.261 202.964 326.261C198.039 326.261 194.79 322.811 194.79 317.584C194.79 312.358 198.039 308.908 202.897 308.908C207.654 308.908 210.837 312.224 210.837 317.115ZM202.897 310.549C199.714 310.549 197.202 312.559 196.833 316.546H208.827C208.592 312.559 206.113 310.549 202.897 310.549ZM96.3405 344.519V365.993H94.3304V344.519H86.0223V342.543H104.682V344.519H96.3405ZM111.325 349.243H113.369V351.085H111.292C108.344 351.085 106.836 353.129 106.836 356.479V365.993H104.927V349.243H106.501L106.803 351.889C107.54 350.348 109.382 349.243 111.325 349.243ZM129.755 364.419H130.324V365.993H129.018C127.778 365.993 126.572 365.424 126.472 363.548C125.5 365.156 123.155 366.328 120.375 366.328C116.656 366.328 114.344 364.352 114.344 361.236C114.344 358.657 115.852 356.445 120.844 356.445H126.472V355.44C126.472 351.923 124.462 350.583 121.715 350.583C118.867 350.583 117.159 351.889 116.991 354.1H115.014C115.316 350.683 118.097 348.908 121.782 348.908C126.204 348.908 128.415 351.487 128.415 355.373V362.978C128.415 364.117 128.649 364.419 129.755 364.419ZM120.542 364.653C123.49 364.653 126.472 362.945 126.472 358.891V358.053H120.844C117.527 358.053 116.354 359.394 116.354 361.27C116.354 363.514 118.063 364.653 120.542 364.653ZM146.901 341.538H148.844V365.993H147.236L146.901 362.945C145.594 365.122 143.048 366.328 140.468 366.328C136.214 366.328 132.428 363.347 132.428 357.718C132.428 352.057 136.247 348.908 140.468 348.908C143.182 348.908 145.594 350.114 146.901 352.224V341.538ZM140.636 364.653C144.087 364.653 146.834 362.107 146.834 357.718C146.834 353.363 144.087 350.583 140.636 350.616C136.951 350.65 134.438 353.397 134.438 357.718C134.438 362.107 137.018 364.653 140.636 364.653ZM152.736 345.156V342.543H155.584V345.156H152.736ZM153.205 365.993V349.243H155.114V365.993H153.205ZM167.043 348.908C171.164 348.908 173.643 351.655 173.643 355.943V365.993H171.7V356.311C171.7 352.526 169.656 350.75 166.742 350.75C163.224 350.75 161.382 353.296 161.382 356.814V365.993H159.472V349.243H161.047L161.348 352.057C162.353 349.98 164.464 348.908 167.043 348.908ZM191.044 349.243H192.652V365.524C192.652 370.013 189.637 373.028 184.981 373.028C181.094 373.028 178.314 370.884 177.61 367.601H179.721C180.357 370.08 182.401 371.353 184.981 371.353C188.699 371.353 190.743 369.142 190.743 365.826V362.107C189.704 364.385 187.259 365.658 184.579 365.658C180.491 365.658 177.108 362.643 177.108 357.316C177.108 351.99 180.424 348.908 184.579 348.908C187.158 348.908 189.57 350.114 190.709 352.291L191.044 349.243ZM184.78 363.983C188.264 363.983 190.642 361.437 190.642 357.35C190.642 353.296 188.297 350.549 184.78 350.549C181.262 350.549 179.118 353.33 179.118 357.35C179.118 361.404 181.296 363.983 184.78 363.983ZM196.432 365.993V362.844H199.581V365.993H196.432Z" fill="white"/>
<defs>
<filter id="filter0_f_1_170" x="0.352584" y="0.556685" width="285.852" height="572.284" filterUnits="userSpaceOnUse" color-interpolation-filters="sRGB">
<feFlood flood-opacity="0" result="BackgroundImageFix"/>
<feBlend mode="normal" in="SourceGraphic" in2="BackgroundImageFix" result="shape"/>
<feGaussianBlur stdDeviation="2.79173" result="effect1_foregroundBlur_1_170"/>
</filter>
<filter id="filter1_f_1_170" x="0.342809" y="332.761" width="11.7252" height="26.2421" filterUnits="userSpaceOnUse" color-interpolation-filters="sRGB">
<feFlood flood-opacity="0" result="BackgroundImageFix"/>
<feBlend mode="normal" in="SourceGraphic" in2="BackgroundImageFix" result="shape"/>
<feGaussianBlur stdDeviation="2.23338" result="effect1_foregroundBlur_1_170"/>
</filter>
<filter id="filter2_f_1_170" x="273.932" y="107.748" width="11.7253" height="32.9423" filterUnits="userSpaceOnUse" color-interpolation-filters="sRGB">
<feFlood flood-opacity="0" result="BackgroundImageFix"/>
<feBlend mode="normal" in="SourceGraphic" in2="BackgroundImageFix" result="shape"/>
<feGaussianBlur stdDeviation="2.23338" result="effect1_foregroundBlur_1_170"/>
</filter>
<linearGradient id="paint0_linear_1_170" x1="222.091" y1="-16.2346" x2="523.251" y2="430.953" gradientUnits="userSpaceOnUse">
<stop stop-color="#1D7B6E"/>
<stop offset="1" stop-color="#E2FF6F" stop-opacity="0"/>
</linearGradient>
<linearGradient id="paint1_linear_1_170" x1="222.091" y1="-16.2346" x2="523.251" y2="430.953" gradientUnits="userSpaceOnUse">
<stop stop-color="#28B6A2"/>
<stop offset="1" stop-color="#E2FF6F" stop-opacity="0"/>
</linearGradient>
<linearGradient id="paint2_linear_1_170" x1="140.664" y1="154.726" x2="140.664" y2="200.77" gradientUnits="userSpaceOnUse">
<stop offset="0.4375" stop-color="#D4F938"/>
<stop offset="1" stop-color="#32D875" stop-opacity="0.96"/>
</linearGradient>
</defs>
</svg>
