<svg width="288" height="574" viewBox="0 0 288 574" fill="none" xmlns="http://www.w3.org/2000/svg">
<path d="M246.171 6.69824H42.3869C23.1163 6.69824 7.49442 22.318 7.49442 41.586V531.811C7.49442 551.079 23.1163 566.698 42.3869 566.698H246.171C265.441 566.698 281.063 551.079 281.063 531.811V41.586C281.063 22.318 265.441 6.69824 246.171 6.69824Z" fill="black" stroke="url(#paint0_linear_1_192)" stroke-width="2.79173" stroke-miterlimit="10"/>
<g filter="url(#filter0_f_1_192)">
<path d="M246.053 7H41.9475C22.6465 7 7 22.6198 7 41.8877V532.112C7 551.38 22.6465 567 41.9475 567H246.053C265.353 567 281 551.38 281 532.112V41.8877C281 22.6198 265.353 7 246.053 7Z" fill="black"/>
<path d="M246.053 7H41.9475C22.6465 7 7 22.6198 7 41.8877V532.112C7 551.38 22.6465 567 41.9475 567H246.053C265.353 567 281 551.38 281 532.112V41.8877C281 22.6198 265.353 7 246.053 7Z" stroke="url(#paint1_linear_1_192)" stroke-width="1.11669" stroke-miterlimit="10"/>
</g>
<path d="M107.045 170.573C107.045 170.573 106.337 172.511 106.295 172.991C106.252 173.471 105.849 174.339 107.092 174.992C107.092 174.992 108.542 175.686 108.95 175.773C108.95 175.773 107.406 175.232 106.97 175.189C106.535 175.146 105.682 174.95 104.932 176.679L104.191 178.587C104.191 178.587 104.88 176.557 104.949 176.137C105.018 175.717 105.357 174.736 104.04 174.107L102.389 173.418C102.389 173.418 103.728 173.938 104.561 174.004C105.394 174.07 106.096 173.181 107.045 170.573Z" fill="#33B568" stroke="#33B568" stroke-width="0.275772" stroke-miterlimit="10"/>
<circle cx="126.742" cy="144.501" r="0.957847" transform="rotate(5.63183 126.742 144.501)" fill="#33B568"/>
<circle cx="112.783" cy="201.3" r="0.957847" transform="rotate(5.63183 112.783 201.3)" fill="#33B568"/>
<circle cx="127.229" cy="225.678" r="0.957847" transform="rotate(5.63183 127.229 225.678)" fill="white"/>
<circle cx="163.479" cy="219.213" r="0.532273" transform="rotate(5.63183 163.479 219.213)" fill="white"/>
<circle cx="165.753" cy="152.823" r="1.54785" transform="rotate(5.63183 165.753 152.823)" fill="#33B568"/>
<g opacity="0.4" filter="url(#filter1_f_1_192)">
<ellipse cx="7.20543" cy="345.883" rx="1.39586" ry="8.65435" fill="#DAF760"/>
</g>
<g opacity="0.5" filter="url(#filter2_f_1_192)">
<ellipse cx="280.795" cy="124.22" rx="1.39586" ry="12.0044" transform="rotate(180 280.795 124.22)" fill="white"/>
</g>
<path d="M60.3007 271.285V294.736H58.2571V271.285H60.3007ZM63.7764 289.945H65.7864C65.8869 292.156 67.7294 293.429 70.644 293.429C73.5586 293.429 75.4346 292.257 75.4346 290.213C75.4346 288.505 74.5636 287.634 72.5535 287.366L68.969 286.83C65.8199 286.361 64.2119 284.987 64.2119 282.341C64.2119 279.493 66.8584 277.65 70.443 277.65C74.2286 277.65 76.9756 279.426 77.0426 282.776H75.0996C75.0326 280.498 73.1231 279.292 70.4765 279.292C67.8969 279.292 66.0879 280.398 66.0879 282.341C66.0879 283.949 67.0594 284.786 69.3375 285.088L72.8886 285.624C75.8701 286.059 77.3776 287.399 77.3776 290.046C77.3776 293.228 74.4966 295.071 70.711 295.071C66.3224 295.071 63.8769 293.061 63.7764 289.945ZM94.4407 277.65C98.5613 277.65 101.04 280.398 101.04 284.686V294.736H99.0973V285.054C99.0973 281.269 97.0538 279.493 94.1392 279.493C90.6216 279.493 88.7791 282.039 88.7791 285.557V294.736H86.8695V277.985H88.4441L88.7456 280.8C89.7506 278.723 91.8612 277.65 94.4407 277.65ZM104.505 286.394C104.505 281.235 107.822 277.65 112.88 277.65C117.939 277.65 121.256 281.235 121.256 286.394C121.256 291.486 117.939 295.071 112.88 295.071C107.822 295.071 104.505 291.486 104.505 286.394ZM106.515 286.361C106.515 290.615 109.061 293.362 112.88 293.362C116.7 293.362 119.246 290.615 119.246 286.361C119.246 282.073 116.7 279.326 112.88 279.326C109.061 279.326 106.515 282.073 106.515 286.361ZM124.796 277.985L129.017 292.558L133.942 277.985H135.885L140.809 292.558L144.896 277.985H146.873L141.982 294.736H139.704L134.813 280.532L130.056 294.736H127.778L122.752 277.985H124.796ZM163.058 277.65C166.307 277.65 169.49 279.393 169.49 284.686V294.736H167.547V285.054C167.547 281.135 165.671 279.493 162.79 279.493C159.172 279.493 157.229 282.106 157.229 285.557V294.736H155.319V270.28H157.229V280.733C158.301 278.756 160.679 277.65 163.058 277.65ZM189.169 285.858V286.93H175.133C175.233 291.185 177.947 293.329 181.297 293.329C183.843 293.329 185.987 292.056 186.958 289.577H188.935C187.896 292.86 185.149 295.004 181.297 295.004C176.372 295.004 173.122 291.553 173.122 286.327C173.122 281.101 176.372 277.65 181.23 277.65C185.987 277.65 189.169 280.967 189.169 285.858ZM181.23 279.292C178.047 279.292 175.535 281.302 175.166 285.289H187.159C186.925 281.302 184.446 279.292 181.23 279.292ZM199.247 277.985H201.291V279.828H199.213C196.265 279.828 194.758 281.872 194.758 285.222V294.736H192.848V277.985H194.423L194.724 280.632C195.461 279.091 197.304 277.985 199.247 277.985ZM218.879 285.858V286.93H204.843C204.943 291.185 207.657 293.329 211.007 293.329C213.553 293.329 215.697 292.056 216.668 289.577H218.645C217.606 292.86 214.859 295.004 211.007 295.004C206.082 295.004 202.833 291.553 202.833 286.327C202.833 281.101 206.082 277.65 210.94 277.65C215.697 277.65 218.879 280.967 218.879 285.858ZM210.94 279.292C207.757 279.292 205.245 281.302 204.876 285.289H216.869C216.635 281.302 214.156 279.292 210.94 279.292ZM221.435 294.736V291.587H224.584V294.736L222.742 298.488H221.335L223.177 294.736H221.435ZM91.4128 317.985H94.4279V314.3C94.4279 311.319 95.9689 310.28 98.5485 310.28H100.659V312.056H98.448C96.7394 312.056 96.3709 312.96 96.3709 314.3V317.985H100.659V319.728H96.3709V334.736H94.4279V319.728H91.4128V317.985ZM102.222 326.394C102.222 321.235 105.539 317.65 110.597 317.65C115.656 317.65 118.973 321.235 118.973 326.394C118.973 331.486 115.656 335.071 110.597 335.071C105.539 335.071 102.222 331.486 102.222 326.394ZM104.232 326.361C104.232 330.615 106.778 333.362 110.597 333.362C114.417 333.362 116.963 330.615 116.963 326.361C116.963 322.073 114.417 319.326 110.597 319.326C106.778 319.326 104.232 322.073 104.232 326.361ZM129.038 317.985H131.081V319.828H129.004C126.056 319.828 124.549 321.872 124.549 325.222V334.736H122.639V317.985H124.214L124.515 320.632C125.252 319.091 127.095 317.985 129.038 317.985ZM139.688 317.985L145.651 333.898L151.145 317.952L153.222 317.985L146.187 337.483C145.014 340.699 143.406 341.436 140.994 341.436H138.012V339.66H141.061C143.071 339.66 144.311 338.555 144.311 336.31C144.311 335.808 144.21 335.272 144.009 334.736L137.543 317.985H139.688ZM154.314 326.394C154.314 321.235 157.631 317.65 162.689 317.65C167.748 317.65 171.065 321.235 171.065 326.394C171.065 331.486 167.748 335.071 162.689 335.071C157.631 335.071 154.314 331.486 154.314 326.394ZM156.324 326.361C156.324 330.615 158.87 333.362 162.689 333.362C166.508 333.362 169.055 330.615 169.055 326.361C169.055 322.073 166.508 319.326 162.689 319.326C158.87 319.326 156.324 322.073 156.324 326.361ZM186.456 317.985H188.366V334.736H186.791L186.49 331.922C185.485 333.999 183.408 335.071 180.962 335.071C176.976 335.071 174.53 332.324 174.53 328.036V317.985H176.473V327.667C176.473 331.453 178.483 333.228 181.264 333.228C184.647 333.228 186.456 330.682 186.456 327.165V317.985ZM192.141 334.736V331.587H195.29V334.736H192.141Z" fill="white"/>
<path d="M180.14 184.837L174.741 190.62L168.256 191.641L173.651 185.858L180.14 184.837Z" fill="#14AB4C"/>
<path d="M178.04 195.477L172.641 201.26L165.753 202.346L171.148 196.564L178.04 195.477Z" fill="#14AB4C"/>
<path d="M150.424 151.131L154.859 160.853L161.751 159.767L166.06 169.22L172.549 168.195L180.14 184.837L173.651 185.858L178.04 195.477L171.147 196.563L175.905 206.992L138.736 212.848L113.255 156.987L150.424 151.131Z" fill="url(#paint2_linear_1_192)"/>
<path d="M175.905 206.993L170.506 212.775L133.337 218.631L138.736 212.848L175.905 206.993Z" fill="#14AB4C"/>
<path d="M138.736 212.848L133.337 218.63L107.86 162.769L113.255 156.986L138.736 212.848Z" fill="#058A36"/>
<path d="M176.263 160.442C176.263 160.442 174.712 164.691 174.619 165.743C174.525 166.796 173.641 168.698 176.365 170.13C176.365 170.13 179.545 171.652 180.44 171.843C180.44 171.843 177.054 170.656 176.1 170.562C175.146 170.469 173.276 170.039 171.63 173.83L170.007 178.012C170.007 178.012 171.518 173.561 171.669 172.641C171.82 171.721 172.562 169.568 169.674 168.19L166.055 166.678C166.055 166.678 168.991 167.82 170.817 167.964C172.643 168.108 174.182 166.161 176.263 160.442Z" fill="white" stroke="white" stroke-width="0.275772" stroke-miterlimit="10"/>
<defs>
<filter id="filter0_f_1_192" x="0.858199" y="0.858443" width="286.284" height="572.284" filterUnits="userSpaceOnUse" color-interpolation-filters="sRGB">
<feFlood flood-opacity="0" result="BackgroundImageFix"/>
<feBlend mode="normal" in="SourceGraphic" in2="BackgroundImageFix" result="shape"/>
<feGaussianBlur stdDeviation="2.79173" result="effect1_foregroundBlur_1_192"/>
</filter>
<filter id="filter1_f_1_192" x="1.34281" y="332.762" width="11.7252" height="26.2421" filterUnits="userSpaceOnUse" color-interpolation-filters="sRGB">
<feFlood flood-opacity="0" result="BackgroundImageFix"/>
<feBlend mode="normal" in="SourceGraphic" in2="BackgroundImageFix" result="shape"/>
<feGaussianBlur stdDeviation="2.23338" result="effect1_foregroundBlur_1_192"/>
</filter>
<filter id="filter2_f_1_192" x="274.932" y="107.749" width="11.7253" height="32.9423" filterUnits="userSpaceOnUse" color-interpolation-filters="sRGB">
<feFlood flood-opacity="0" result="BackgroundImageFix"/>
<feBlend mode="normal" in="SourceGraphic" in2="BackgroundImageFix" result="shape"/>
<feGaussianBlur stdDeviation="2.23338" result="effect1_foregroundBlur_1_192"/>
</filter>
<linearGradient id="paint0_linear_1_192" x1="223.091" y1="-16.2346" x2="524.251" y2="430.953" gradientUnits="userSpaceOnUse">
<stop stop-color="#1D7B6E"/>
<stop offset="1" stop-color="#E2FF6F" stop-opacity="0"/>
</linearGradient>
<linearGradient id="paint1_linear_1_192" x1="222.937" y1="-15.9328" x2="523.918" y2="431.694" gradientUnits="userSpaceOnUse">
<stop stop-color="#28B6A2"/>
<stop offset="1" stop-color="#E2FF6F" stop-opacity="0"/>
</linearGradient>
<linearGradient id="paint2_linear_1_192" x1="146.984" y1="152.81" x2="142.157" y2="212.918" gradientUnits="userSpaceOnUse">
<stop offset="0.4267" stop-color="#D4F938"/>
<stop offset="1" stop-color="#32D875" stop-opacity="0.96"/>
</linearGradient>
</defs>
</svg>
